<svg xmlns="http://www.w3.org/2000/svg" width="360" height="176" viewBox="0 0 360 176" font-family="Segoe UI, Roboto, Helvetica, Arial, sans-serif">
  <defs>
    <linearGradient id="gGreen" x1="0" y1="0" x2="1" y2="0">
      <stop offset="0" stop-color="#1E4D33"/><stop offset="1" stop-color="#2F7048"/>
    </linearGradient>
    <linearGradient id="gYellow" x1="0" y1="0" x2="1" y2="0">
      <stop offset="0" stop-color="#5C4E1A"/><stop offset="1" stop-color="#837020"/>
    </linearGradient>
  </defs>

  <rect width="360" height="176" rx="16" fill="#181C20"/>

  <!-- header -->
  <text x="16" y="24" font-size="12" font-weight="700" fill="#FFFFFF">Tue Oct 20</text>
  <text x="344" y="24" font-size="11" fill="#FFFFFF" fill-opacity="0.5" text-anchor="end">updated 6:40 AM</text>

  <!-- MORNING row: yellow / gloves, partly cloudy -->
  <rect x="10" y="36" width="340" height="60" rx="12" fill="url(#gYellow)"/>
  <text x="24" y="61" font-size="12" font-weight="700" fill="#FFFFFF" letter-spacing="0.5">MORNING</text>
  <text x="24" y="78" font-size="11" fill="#FFFFFF" fill-opacity="0.7">7:15–8:15</text>
  <circle cx="107" cy="52" r="5.5" fill="#FFD54F"/>
  <g stroke="#FFD54F" stroke-width="1.4" stroke-linecap="round">
    <line x1="107" y1="42.5" x2="107" y2="44.5"/><line x1="97.5" y1="52" x2="99.5" y2="52"/>
    <line x1="100" y1="45" x2="101.5" y2="46.5"/><line x1="114" y1="45" x2="112.5" y2="46.5"/>
  </g>
  <g transform="translate(102,48) scale(0.78)">
    <path fill="#CFD8DC" d="M19.35,10.04C18.67,6.59 15.64,4 12,4C9.11,4 6.6,5.64 5.35,8.04C2.34,8.36 0,10.91 0,14A6,6 0 0,0 6,20H19A5,5 0 0,0 24,15C24,12.36 21.95,10.22 19.35,10.04Z"/>
  </g>
  <text x="112" y="82" font-size="9.5" fill="#FFFFFF" fill-opacity="0.7" text-anchor="middle">0.0mm · 10%</text>
  <text x="248" y="78" font-size="30" font-weight="700" fill="#FFFFFF" text-anchor="end">44°</text>
  <text x="258" y="57" font-size="11" fill="#FFFFFF" fill-opacity="0.7">feels 38°</text>
  <text x="258" y="73" font-size="13" font-weight="600" fill="#FFFFFF">Gloves</text>
  <text x="258" y="87" font-size="9.5" fill="#FFFFFF" fill-opacity="0.5">worst @ 7:15 AM</text>

  <!-- EVENING row: green / jacket, cloudy -->
  <rect x="10" y="106" width="340" height="60" rx="12" fill="url(#gGreen)"/>
  <text x="24" y="131" font-size="12" font-weight="700" fill="#FFFFFF" letter-spacing="0.5">EVENING</text>
  <text x="24" y="148" font-size="11" fill="#FFFFFF" fill-opacity="0.7">5:00–6:00</text>
  <g transform="translate(100,113) scale(1.0)">
    <path fill="#CFD8DC" d="M19.35,10.04C18.67,6.59 15.64,4 12,4C9.11,4 6.6,5.64 5.35,8.04C2.34,8.36 0,10.91 0,14A6,6 0 0,0 6,20H19A5,5 0 0,0 24,15C24,12.36 21.95,10.22 19.35,10.04Z"/>
  </g>
  <text x="112" y="152" font-size="9.5" fill="#FFFFFF" fill-opacity="0.7" text-anchor="middle">0.1mm · 15%</text>
  <text x="248" y="148" font-size="30" font-weight="700" fill="#FFFFFF" text-anchor="end">55°</text>
  <text x="258" y="127" font-size="11" fill="#FFFFFF" fill-opacity="0.7">feels 51°</text>
  <text x="258" y="143" font-size="13" font-weight="600" fill="#FFFFFF">Jacket</text>
  <text x="258" y="157" font-size="9.5" fill="#FFFFFF" fill-opacity="0.5">worst @ 6:00 PM</text>
</svg>
