<svg xmlns="http://www.w3.org/2000/svg" width="360" height="176" viewBox="0 0 360 176" font-family="Segoe UI, Roboto, Helvetica, Arial, sans-serif">
  <defs>
    <linearGradient id="gGreen" x1="0" y1="0" x2="1" y2="0">
      <stop offset="0" stop-color="#1E4D33"/><stop offset="1" stop-color="#2F7048"/>
    </linearGradient>
    <linearGradient id="gRed" x1="0" y1="0" x2="1" y2="0">
      <stop offset="0" stop-color="#5C2323"/><stop offset="1" stop-color="#833030"/>
    </linearGradient>
  </defs>

  <rect width="360" height="176" rx="16" fill="#181C20"/>

  <!-- header -->
  <text x="16" y="24" font-size="12" font-weight="700" fill="#FFFFFF">Fri Jul 11</text>
  <text x="344" y="24" font-size="11" fill="#FFFFFF" fill-opacity="0.5" text-anchor="end">updated 6:52 AM</text>

  <!-- MORNING row: green / ideal -->
  <rect x="10" y="36" width="340" height="60" rx="12" fill="url(#gGreen)"/>
  <text x="24" y="61" font-size="12" font-weight="700" fill="#FFFFFF" letter-spacing="0.5">MORNING</text>
  <text x="24" y="78" font-size="11" fill="#FFFFFF" fill-opacity="0.7">7:15–8:15</text>
  <g stroke="#FFD54F" stroke-width="1.8" stroke-linecap="round">
    <circle cx="112" cy="56" r="7.5" fill="#FFD54F" stroke="none"/>
    <line x1="112" y1="44" x2="112" y2="47"/><line x1="112" y1="65" x2="112" y2="68"/>
    <line x1="100" y1="56" x2="103" y2="56"/><line x1="121" y1="56" x2="124" y2="56"/>
    <line x1="103.5" y1="47.5" x2="105.6" y2="49.6"/><line x1="118.4" y1="62.4" x2="120.5" y2="64.5"/>
    <line x1="120.5" y1="47.5" x2="118.4" y2="49.6"/><line x1="105.6" y1="62.4" x2="103.5" y2="64.5"/>
  </g>
  <text x="112" y="82" font-size="9.5" fill="#FFFFFF" fill-opacity="0.7" text-anchor="middle">0.0mm · 0%</text>
  <text x="248" y="78" font-size="30" font-weight="700" fill="#FFFFFF" text-anchor="end">58°</text>
  <text x="258" y="57" font-size="11" fill="#FFFFFF" fill-opacity="0.7">feels 61°</text>
  <text x="258" y="73" font-size="13" font-weight="600" fill="#FFFFFF">Ideal</text>
  <text x="258" y="87" font-size="9.5" fill="#FFFFFF" fill-opacity="0.5">worst @ 7:15 AM</text>

  <!-- EVENING row: red / rain -->
  <rect x="10" y="106" width="340" height="60" rx="12" fill="url(#gRed)"/>
  <text x="24" y="131" font-size="12" font-weight="700" fill="#FFFFFF" letter-spacing="0.5">EVENING</text>
  <text x="24" y="148" font-size="11" fill="#FFFFFF" fill-opacity="0.7">5:00–6:00</text>
  <g transform="translate(101,112) scale(0.92)">
    <path fill="#CFD8DC" d="M19.35,10.04C18.67,6.59 15.64,4 12,4C9.11,4 6.6,5.64 5.35,8.04C2.34,8.36 0,10.91 0,14A6,6 0 0,0 6,20H19A5,5 0 0,0 24,15C24,12.36 21.95,10.22 19.35,10.04Z"/>
  </g>
  <g stroke="#81D4FA" stroke-width="1.8" stroke-linecap="round">
    <line x1="106" y1="134" x2="105" y2="139"/><line x1="112" y1="134" x2="111" y2="139"/><line x1="118" y1="134" x2="117" y2="139"/>
  </g>
  <text x="112" y="152" font-size="9.5" fill="#FFFFFF" fill-opacity="0.7" text-anchor="middle">1.2mm · 90%</text>
  <text x="248" y="148" font-size="30" font-weight="700" fill="#FFFFFF" text-anchor="end">79°</text>
  <text x="258" y="127" font-size="11" fill="#FFFFFF" fill-opacity="0.7">feels 84°</text>
  <text x="258" y="143" font-size="13" font-weight="600" fill="#FFFFFF">Too hot</text>
  <text x="258" y="157" font-size="9.5" fill="#FFFFFF" fill-opacity="0.5">worst @ 5:00 PM</text>
</svg>
